<?xml version="1.0" encoding="utf-8"?>
<!-- Generator: Adobe Illustrator 16.0.0, SVG Export Plug-In . SVG Version: 6.00 Build 0)  -->
<!DOCTYPE svg PUBLIC "-//W3C//DTD SVG 1.1//EN" "http://www.w3.org/Graphics/SVG/1.1/DTD/svg11.dtd">
<svg version="1.1" id="Layer_1" xmlns="http://www.w3.org/2000/svg" xmlns:xlink="http://www.w3.org/1999/xlink" x="0px" y="0px"
	 width="512px" height="512px" viewBox="0 0 512 512" enable-background="new 0 0 512 512" xml:space="preserve">
<path d="M256,96c-79.531,0-144,64.469-144,144c0,56.406,32.75,104.75,80,128.375V448c0,17.688,14.313,32,32,32
	c0,17.688,14.313,32,32,32s32-14.313,32-32c17.688,0,32-14.313,32-32v-79.625c47.25-23.625,80-71.969,80-128.375
	C400,160.469,335.531,96,256,96z M288,448h-64v-32h64V448z M305.688,339.75L288,348.594V384h-64v-35.406l-17.688-8.844
	C167.875,320.531,144,282.313,144,240c0-61.75,50.25-112,112-112s112,50.25,112,112C368,282.313,344.125,320.531,305.688,339.75z
	 M240,64V16c0-8.844,7.156-16,16-16s16,7.156,16,16v48c0,8.813-7.156,16-16,16S240,72.813,240,64z M394.563,160
	c-4.438-7.625-1.813-17.438,5.844-21.844L442,114.125c7.656-4.375,17.469-1.813,21.844,5.875c4.438,7.656,1.813,17.438-5.844,21.875
	l-41.594,24c-2.531,1.438-5.281,2.125-8,2.125C402.906,168,397.5,165.156,394.563,160z M330.156,79.594l24-41.594
	c4.406-7.625,14.219-10.188,21.844-5.844c7.656,4.406,10.281,14.219,5.844,21.844l-24,41.594c-2.938,5.125-8.344,8-13.844,8
	c-2.719,0-5.469-0.688-8-2.156C328.344,97.031,325.719,87.25,330.156,79.594z M117.438,320c4.438,7.656,1.813,17.438-5.844,21.844
	l-41.594,24c-2.5,1.469-5.25,2.156-7.969,2.156c-5.531,0-10.906-2.875-13.875-8c-4.406-7.656-1.781-17.438,5.844-21.844l41.594-24
	C103.188,309.688,113,312.344,117.438,320z M80,256H32c-8.844,0-16-7.156-16-16s7.156-16,16-16h48c8.813,0,16,7.156,16,16
	S88.813,256,80,256z M48.156,120c4.406-7.656,14.219-10.313,21.844-5.875l41.625,24.063c7.688,4.406,10.313,14.188,5.875,21.844
	c-2.969,5.125-8.344,8-13.875,8c-2.719,0-5.469-0.688-8-2.156l-41.625-24C46.375,137.438,43.75,127.656,48.156,120z M130.125,54
	c-4.406-7.625-1.781-17.438,5.875-21.844c7.594-4.438,17.406-1.781,21.875,5.844l23.938,41.5c4.438,7.688,1.813,17.438-5.875,21.875
	c-2.5,1.438-5.25,2.125-7.969,2.125c-5.531,0-10.906-2.875-13.875-8L130.125,54z M463.844,360c-2.938,5.125-8.344,8-13.844,8
	c-2.719,0-5.469-0.688-8-2.156l-41.625-24.031c-7.656-4.406-10.281-14.188-5.844-21.844c4.406-7.625,14.219-10.25,21.844-5.844
	L458,338.156C465.656,342.563,468.281,352.344,463.844,360z M496,240c0,8.844-7.156,16-16,16h-48c-8.844,0-16-7.156-16-16
	s7.156-16,16-16h48C488.844,224,496,231.156,496,240z M192,320l64-80h64L192,320z M320,160l-64,80h-64L320,160z"/>
</svg>
